<?xml version="1.0" standalone="no"?>
<svg xmlns:xlink="http://www.w3.org/1999/xlink" id="wave" style="transform:rotate(0deg); transition: 0.3s" viewBox="0 0 1440 490" version="1.1" xmlns="http://www.w3.org/2000/svg"><defs><linearGradient id="sw-gradient-0" x1="0" x2="0" y1="1" y2="0"><stop stop-color="rgba(60, 96, 224, 1)" offset="0%"/><stop stop-color="rgba(197, 11, 255, 1)" offset="100%"/></linearGradient></defs><path style="transform:translate(0, 0px); opacity:1" fill="url(#sw-gradient-0)" d="M0,98L80,98C160,98,320,98,480,122.5C640,147,800,196,960,228.7C1120,261,1280,278,1440,302.2C1600,327,1760,359,1920,383.8C2080,408,2240,425,2400,400.2C2560,376,2720,310,2880,253.2C3040,196,3200,147,3360,155.2C3520,163,3680,229,3840,236.8C4000,245,4160,196,4320,179.7C4480,163,4640,180,4800,228.7C4960,278,5120,359,5280,383.8C5440,408,5600,376,5760,359.3C5920,343,6080,343,6240,302.2C6400,261,6560,180,6720,147C6880,114,7040,131,7200,171.5C7360,212,7520,278,7680,294C7840,310,8000,278,8160,220.5C8320,163,8480,82,8640,73.5C8800,65,8960,131,9120,204.2C9280,278,9440,359,9600,359.3C9760,359,9920,278,10080,220.5C10240,163,10400,131,10560,138.8C10720,147,10880,196,11040,187.8C11200,180,11360,114,11440,81.7L11520,49L11520,490L11440,490C11360,490,11200,490,11040,490C10880,490,10720,490,10560,490C10400,490,10240,490,10080,490C9920,490,9760,490,9600,490C9440,490,9280,490,9120,490C8960,490,8800,490,8640,490C8480,490,8320,490,8160,490C8000,490,7840,490,7680,490C7520,490,7360,490,7200,490C7040,490,6880,490,6720,490C6560,490,6400,490,6240,490C6080,490,5920,490,5760,490C5600,490,5440,490,5280,490C5120,490,4960,490,4800,490C4640,490,4480,490,4320,490C4160,490,4000,490,3840,490C3680,490,3520,490,3360,490C3200,490,3040,490,2880,490C2720,490,2560,490,2400,490C2240,490,2080,490,1920,490C1760,490,1600,490,1440,490C1280,490,1120,490,960,490C800,490,640,490,480,490C320,490,160,490,80,490L0,490Z"/><defs><linearGradient id="sw-gradient-1" x1="0" x2="0" y1="1" y2="0"><stop stop-color="rgba(243, 106, 62, 1)" offset="0%"/><stop stop-color="rgba(197, 11, 255, 1)" offset="100%"/></linearGradient></defs><path style="transform:translate(0, 50px); opacity:0.9" fill="url(#sw-gradient-1)" d="M0,294L80,310.3C160,327,320,359,480,359.3C640,359,800,327,960,294C1120,261,1280,229,1440,228.7C1600,229,1760,261,1920,294C2080,327,2240,359,2400,310.3C2560,261,2720,131,2880,114.3C3040,98,3200,196,3360,253.2C3520,310,3680,327,3840,343C4000,359,4160,376,4320,334.8C4480,294,4640,196,4800,163.3C4960,131,5120,163,5280,163.3C5440,163,5600,131,5760,163.3C5920,196,6080,294,6240,326.7C6400,359,6560,327,6720,318.5C6880,310,7040,327,7200,302.2C7360,278,7520,212,7680,171.5C7840,131,8000,114,8160,163.3C8320,212,8480,327,8640,318.5C8800,310,8960,180,9120,122.5C9280,65,9440,82,9600,138.8C9760,196,9920,294,10080,326.7C10240,359,10400,327,10560,326.7C10720,327,10880,359,11040,375.7C11200,392,11360,392,11440,392L11520,392L11520,490L11440,490C11360,490,11200,490,11040,490C10880,490,10720,490,10560,490C10400,490,10240,490,10080,490C9920,490,9760,490,9600,490C9440,490,9280,490,9120,490C8960,490,8800,490,8640,490C8480,490,8320,490,8160,490C8000,490,7840,490,7680,490C7520,490,7360,490,7200,490C7040,490,6880,490,6720,490C6560,490,6400,490,6240,490C6080,490,5920,490,5760,490C5600,490,5440,490,5280,490C5120,490,4960,490,4800,490C4640,490,4480,490,4320,490C4160,490,4000,490,3840,490C3680,490,3520,490,3360,490C3200,490,3040,490,2880,490C2720,490,2560,490,2400,490C2240,490,2080,490,1920,490C1760,490,1600,490,1440,490C1280,490,1120,490,960,490C800,490,640,490,480,490C320,490,160,490,80,490L0,490Z"/><defs><linearGradient id="sw-gradient-2" x1="0" x2="0" y1="1" y2="0"><stop stop-color="rgba(243, 106, 62, 1)" offset="0%"/><stop stop-color="rgba(197, 11, 255, 1)" offset="100%"/></linearGradient></defs><path style="transform:translate(0, 100px); opacity:0.8" fill="url(#sw-gradient-2)" d="M0,196L80,212.3C160,229,320,261,480,228.7C640,196,800,98,960,98C1120,98,1280,196,1440,204.2C1600,212,1760,131,1920,114.3C2080,98,2240,147,2400,138.8C2560,131,2720,65,2880,73.5C3040,82,3200,163,3360,187.8C3520,212,3680,180,3840,155.2C4000,131,4160,114,4320,147C4480,180,4640,261,4800,261.3C4960,261,5120,180,5280,196C5440,212,5600,327,5760,343C5920,359,6080,278,6240,253.2C6400,229,6560,261,6720,302.2C6880,343,7040,392,7200,351.2C7360,310,7520,180,7680,106.2C7840,33,8000,16,8160,49C8320,82,8480,163,8640,220.5C8800,278,8960,310,9120,285.8C9280,261,9440,180,9600,130.7C9760,82,9920,65,10080,81.7C10240,98,10400,147,10560,147C10720,147,10880,98,11040,98C11200,98,11360,147,11440,171.5L11520,196L11520,490L11440,490C11360,490,11200,490,11040,490C10880,490,10720,490,10560,490C10400,490,10240,490,10080,490C9920,490,9760,490,9600,490C9440,490,9280,490,9120,490C8960,490,8800,490,8640,490C8480,490,8320,490,8160,490C8000,490,7840,490,7680,490C7520,490,7360,490,7200,490C7040,490,6880,490,6720,490C6560,490,6400,490,6240,490C6080,490,5920,490,5760,490C5600,490,5440,490,5280,490C5120,490,4960,490,4800,490C4640,490,4480,490,4320,490C4160,490,4000,490,3840,490C3680,490,3520,490,3360,490C3200,490,3040,490,2880,490C2720,490,2560,490,2400,490C2240,490,2080,490,1920,490C1760,490,1600,490,1440,490C1280,490,1120,490,960,490C800,490,640,490,480,490C320,490,160,490,80,490L0,490Z"/></svg>